<svg width="67" height="76" viewBox="0 0 67 76" fill="none" xmlns="http://www.w3.org/2000/svg">
<path d="M27.9167 59.4994L28.3075 59.0609C26.584 58.4903 25.071 57.3099 23.9944 55.6958C22.9178 54.0818 22.3351 52.1206 22.3334 50.1047C22.3334 44.9063 26.0742 40.71 30.7084 40.71C34.5023 40.71 37.6596 43.541 38.6925 47.4116L55.8334 28.1838V21.9207L44.6667 9.39453H11.1667C9.68592 9.39453 8.26577 10.0544 7.21869 11.229C6.17162 12.4035 5.58337 13.9966 5.58337 15.6576V59.4994C5.58337 62.9441 8.09587 65.7625 11.1667 65.7625H27.9167V59.4994ZM11.1667 15.6576H39.0834V28.1838H11.1667V15.6576ZM55.945 37.9856C55.5542 37.9856 55.1634 38.1735 54.8563 38.518L52.0646 41.6495L57.7875 48.0692L60.5792 44.9376C61.1934 44.28 61.1934 43.184 60.5792 42.5263L57.0059 38.518C56.8699 38.3539 56.706 38.2223 56.5237 38.1308C56.3415 38.0393 56.1447 37.99 55.945 37.9856ZM50.4455 43.4658L33.5 62.443V68.894H39.2509L56.1684 49.8855L50.4455 43.4658Z" fill="#1F1F32"/>
</svg>
