<svg width="62" height="63" viewBox="0 0 62 63" fill="none" xmlns="http://www.w3.org/2000/svg">
<path d="M41.8827 29.9619L45.8144 33.9609L40.9149 38.9443C40.552 39.3135 40.552 39.6826 40.9149 40.0518L41.9432 41.0977C42.3061 41.4668 42.6691 41.4668 43.032 41.0977L47.9315 36.1143L55.4925 43.8047L50.593 48.7881C50.23 49.1572 50.23 49.5059 50.593 49.834L51.6213 50.9414C51.9842 51.3105 52.3471 51.3105 52.71 50.9414L57.6095 45.958L61.4203 49.834C61.7832 50.2031 61.9647 50.6543 61.9647 51.1875C61.9647 51.7207 61.7832 52.1924 61.4203 52.6025L51.7422 62.4463C51.339 62.8154 50.8752 63 50.351 63C49.8268 63 49.3832 62.8154 49.0203 62.4463L29.4827 42.5742L18.111 54.1406C17.4658 54.7969 16.6795 55.125 15.752 55.125C14.8245 55.125 14.0382 54.7969 13.393 54.1406L8.79588 49.4033C8.15068 48.7471 7.82807 47.9575 7.82807 47.0347C7.82807 46.1118 8.15068 45.3223 8.79588 44.666L20.1676 33.0996L0.569537 13.166C0.20661 12.7969 0.0251465 12.3457 0.0251465 11.8125C0.0251465 11.2793 0.20661 10.8281 0.569537 10.459L10.2476 0.553711C10.6508 0.18457 11.1146 0 11.6388 0C12.163 0 12.6066 0.18457 12.9695 0.553711L16.7803 4.42969L11.8808 9.41309C11.5178 9.78223 11.5178 10.1514 11.8808 10.5205L12.9091 11.5664C13.272 11.9355 13.6349 11.9355 13.9978 11.5664L18.8973 6.58301L26.4583 14.2734L21.5588 19.2568C21.1959 19.626 21.1959 19.9951 21.5588 20.3643L22.5871 21.4102C22.95 21.7793 23.313 21.7793 23.6759 21.4102L28.5754 16.4268L32.5071 20.4873L51.6817 0.984375C52.3269 0.328125 53.1032 0 54.0105 0C54.9178 0 55.6941 0.328125 56.3393 0.984375L60.9969 5.72168C61.6421 6.37793 61.9647 7.16748 61.9647 8.09033C61.9647 9.01318 61.6421 9.80273 60.9969 10.459L41.8827 29.9619ZM4.01734 49.7109C4.09799 50.0391 4.23913 50.3057 4.44076 50.5107L12.3042 58.5088C12.5058 58.7139 12.7679 58.8574 13.0905 58.9395C12.8889 59.3496 12.7276 59.5957 12.6066 59.6777L1.96076 63C0.992952 63 0.428399 62.918 0.267098 62.7539C0.105797 62.5898 0.0251465 62.0156 0.0251465 61.0312L3.29149 50.2031C3.37214 50.1211 3.61409 49.957 4.01734 49.7109Z" fill="#F2F2F2"/>
</svg>
