<svg width="63" height="69" viewBox="0 0 63 69" fill="none" xmlns="http://www.w3.org/2000/svg">
<path d="M59.8327 34.2235C58.9975 34.2235 58.1965 34.5839 57.6059 35.2253C57.0153 35.8668 56.6836 36.7368 56.6836 37.6439V58.1661C56.6836 59.0733 56.3518 59.9433 55.7612 60.5847C55.1707 61.2261 54.3697 61.5865 53.5345 61.5865H9.44726C8.61207 61.5865 7.81109 61.2261 7.22052 60.5847C6.62995 59.9433 6.29817 59.0733 6.29817 58.1661V10.2809C6.29817 9.37381 6.62995 8.50382 7.22052 7.86238C7.81109 7.22093 8.61207 6.86057 9.44726 6.86057H28.3418C29.177 6.86057 29.978 6.50021 30.5685 5.85877C31.1591 5.21733 31.4909 4.34734 31.4909 3.4402C31.4909 2.53306 31.1591 1.66308 30.5685 1.02164C29.978 0.380192 29.177 0.0198325 28.3418 0.0198325H9.44726C6.94169 0.0198325 4.53874 1.10091 2.76704 3.02524C0.995334 4.94957 0 7.55953 0 10.2809V58.1661C0 60.8876 0.995334 63.4975 2.76704 65.4218C4.53874 67.3462 6.94169 68.4272 9.44726 68.4272H53.5345C56.04 68.4272 58.443 67.3462 60.2147 65.4218C61.9864 63.4975 62.9817 60.8876 62.9817 58.1661V37.6439C62.9817 36.7368 62.65 35.8668 62.0594 35.2253C61.4688 34.5839 60.6678 34.2235 59.8327 34.2235ZM12.5963 36.823V51.3254C12.5963 52.2325 12.9281 53.1025 13.5187 53.744C14.1093 54.3854 14.9102 54.7458 15.7454 54.7458H29.0976C29.512 54.7484 29.9228 54.6621 30.3065 54.4919C30.6902 54.3217 31.0392 54.0709 31.3334 53.7539L53.1251 30.0507L62.0685 20.5421C62.3637 20.2241 62.5979 19.8458 62.7578 19.429C62.9177 19.0122 63 18.5651 63 18.1136C63 17.6621 62.9177 17.215 62.7578 16.7982C62.5979 16.3814 62.3637 16.0031 62.0685 15.6851L48.7164 1.01174C48.4236 0.691154 48.0753 0.436698 47.6916 0.26305C47.3078 0.0894025 46.8962 0 46.4805 0C46.0648 0 45.6532 0.0894025 45.2695 0.26305C44.8857 0.436698 44.5374 0.691154 44.2447 1.01174L35.3642 10.6914L13.5096 34.3946C13.2177 34.7142 12.9868 35.0932 12.8301 35.5099C12.6734 35.9266 12.594 36.3729 12.5963 36.823ZM46.4805 8.26293L55.3924 17.9426L50.9207 22.7995L42.0088 13.1199L46.4805 8.26293ZM18.8945 38.2254L37.5686 17.9426L46.4805 27.6222L27.8064 47.905H18.8945V38.2254Z" fill="#F2F2F2"/>
</svg>
